<?xml version="1.0" encoding="UTF-8"?><svg id="Layer_1" xmlns="http://www.w3.org/2000/svg" viewBox="0 0 407.7 133.87"><defs><style>.cls-1{letter-spacing:-.06em;}.cls-2{letter-spacing:-.02em;}.cls-3{letter-spacing:0em;}.cls-4{stroke-linecap:round;}.cls-4,.cls-5{fill:none;stroke:#231f20;stroke-miterlimit:10;}.cls-6{font-family:Athelas-Bold, Athelas;font-size:24px;font-weight:700;}.cls-6,.cls-7{fill:#231f20;}.cls-7{font-family:BaroqueTextJF, BaroqueTextJF;font-size:69.87px;}.cls-8{opacity:.5;}</style></defs><g class="cls-8"><path class="cls-4" d="m55.65,103.23c2.54,2.42,8.2,7.16,16.91,9.37,8.61,2.19,16.01.41,21.82-.92,8.42-1.93,20.19-6.41,21.52-6.92,2.58-.99,6.15-2.42,11.07-2.46,4.95-.04,8.35,1.35,9.99,2.15,2.23,1.09,6.04,2.95,6.92,6.61.11.44.72,3.02-.77,4.46-1.43,1.38-4.12,1.04-5.69-.15-1.72-1.31-1.89-3.49-2-4.92-.02-.32-.16-2.25.61-4.3,1.92-5.1,8.06-7.37,10.14-8.15,5.71-2.11,10.8-1.8,13.52-1.54,16.92,1.66,30.37,9.19,33.96,11.37,3.58,2.17,7.21,4.24,10.78,6.41,5.33,3.25,7.81,4.88,11.92,5.77,2.49.54,5.53,1.16,8.85-.19.34-.14,6.22-2.62,6.15-6.73-.06-3.49-4.37-5.73-5.19-6.15-5.74-2.98-12.32-.52-15.77.77-3.1,1.16-5.29,2.62-6.54,3.46-2.77,1.87-4.24,2.87-5.38,4.81-.32.54-3.03,5.31-.58,9.42.36.61,2.16,3.42,5.58,3.65,3.35.23,5.52-2.21,5.77-2.5"/><path class="cls-4" d="m333.65,103.23c-2.54,2.42-8.2,7.16-16.91,9.37-8.61,2.19-16.01.41-21.82-.92-8.42-1.93-20.19-6.41-21.52-6.92-2.58-.99-6.15-2.42-11.07-2.46-4.95-.04-8.35,1.35-9.99,2.15-2.23,1.09-6.04,2.95-6.92,6.61-.11.44-.72,3.02.77,4.46,1.43,1.38,4.12,1.04,5.69-.15,1.72-1.31,1.89-3.49,2-4.92.02-.32.16-2.25-.61-4.3-1.92-5.1-8.06-7.37-10.14-8.15-5.71-2.11-10.8-1.8-13.52-1.54-16.92,1.66-30.37,9.19-33.96,11.37-3.58,2.17-7.21,4.24-10.78,6.41-5.33,3.25-7.81,4.88-11.92,5.77-2.49.54-5.53,1.16-8.85-.19-.34-.14-6.22-2.62-6.15-6.73.06-3.49,4.37-5.73,5.19-6.15,5.74-2.98,12.32-.52,15.77.77,3.1,1.16,5.29,2.62,6.54,3.46,2.77,1.87,4.24,2.87,5.38,4.81.32.54,3.03,5.31.58,9.42-.36.61-2.16,3.42-5.58,3.65-3.35.23-5.52-2.21-5.77-2.5"/></g><g class="cls-8"><path class="cls-5" d="m32.35,54.69c2.93-2.8,9.48-8.28,19.54-10.84,9.95-2.53,18.5-.47,25.22,1.07,9.73,2.23,23.33,7.41,24.87,7.99,2.98,1.14,7.11,2.79,12.79,2.84,5.72.05,9.65-1.56,11.55-2.49,2.58-1.26,6.98-3.41,7.99-7.64.12-.51.84-3.49-.89-5.15-1.66-1.6-4.76-1.2-6.57.18-1.98,1.51-2.18,4.04-2.31,5.68-.03.37-.18,2.6.71,4.97,2.21,5.9,9.31,8.52,11.72,9.41,6.6,2.44,12.48,2.09,15.63,1.78,19.55-1.92,35.1-10.62,39.25-13.14,4.13-2.51,8.33-4.9,12.46-7.41,6.16-3.75,9.03-5.64,13.78-6.67,2.87-.62,6.39-1.34,10.22.22.39.16,7.19,3.03,7.11,7.78-.07,4.03-5.05,6.62-6,7.11-6.64,3.44-14.24.6-18.23-.89-3.59-1.34-6.11-3.02-7.56-4-3.2-2.16-4.9-3.31-6.22-5.56-.37-.63-3.5-6.14-.67-10.89.42-.7,2.49-3.96,6.45-4.22,3.87-.26,6.38,2.55,6.67,2.89"/><path class="cls-5" d="m353.64,54.69c-2.93-2.8-9.48-8.28-19.54-10.84-9.95-2.53-18.5-.47-25.22,1.07-9.73,2.23-23.33,7.41-24.87,7.99-2.98,1.14-7.11,2.79-12.79,2.84-5.72.05-9.65-1.56-11.55-2.49-2.58-1.26-6.98-3.41-7.99-7.64-.12-.51-.84-3.49.89-5.15,1.66-1.6,4.76-1.2,6.57.18,1.98,1.51,2.18,4.04,2.31,5.68.03.37.18,2.6-.71,4.97-2.21,5.9-9.31,8.52-11.72,9.41-6.6,2.44-12.48,2.09-15.63,1.78-19.55-1.92-35.1-10.62-39.25-13.14-4.13-2.51-8.33-4.9-12.46-7.41-6.16-3.75-9.03-5.64-13.78-6.67-2.87-.62-6.39-1.34-10.22.22-.39.16-7.19,3.03-7.11,7.78.07,4.03,5.05,6.62,6,7.11,6.64,3.44,14.24.6,18.23-.89,3.59-1.34,6.11-3.02,7.56-4,3.2-2.16,4.9-3.31,6.22-5.56.37-.63,3.5-6.14.67-10.89-.42-.7-2.49-3.96-6.45-4.22-3.87-.26-6.38,2.55-6.67,2.89"/></g><text class="cls-7" transform="translate(0 90.48)"><tspan x="0" y="0">Cael An</tspan><tspan class="cls-2" x="267.05" y="0">s</tspan><tspan x="300.1" y="0">elm</tspan></text><text class="cls-6" transform="translate(225.91 118.24)"><tspan x="0" y="0">Offical </tspan><tspan class="cls-1" x="76.54" y="0">F</tspan><tspan class="cls-3" x="88.85" y="0">an Club</tspan></text></svg>